<svg viewBox="0 0 575 575" class="roots-wrapper">
    <g>
        <svg xmlns="http://www.w3.org/2000/svg" xmlns:xlink="http://www.w3.org/1999/xlink" viewBoxSize="575" data-root-id="4061231430711" viewBox="14.196868896484375 18.089996337890625 223.8583526611328 187.44000244140625" height="265.418315118422" width="316.9873046875" y="105.513" x="157.804" preserveAspectRatio="xMinYMin" zoom="1" editorType="buyer" data-layer-role="icon" style="position: absolute; height: 265.418px; width: 316.987px; top: 105.513px; left: 157.804px;">
            <linearGradient id="linear-gradient" x1="19.52" y1="176.22" x2="178.04" y2="49.99" gradientTransform="translate(30.44 -21.5) rotate(12.7)" gradientUnits="userSpaceOnUse" name="Layer %{number}" zoom="1" data-layer-id="5815853130711">
                <stop offset="0" stop-color="#012442"/>
                <stop offset="0.54" stop-color="#277ec8"/>
                <stop offset="1" stop-color="#115894"/>
            </linearGradient>
            <linearGradient id="linear-gradient-2" x1="29.67" y1="190.68" x2="225.62" y2="64.45" xlink:href="#linear-gradient" name="Layer %{number}" zoom="1" data-layer-id="8858970330711"/>
            <linearGradient id="linear-gradient-3" x1="36.79" y1="206.13" x2="190.17" y2="115.86" xlink:href="#linear-gradient" name="Layer %{number}" zoom="1" data-layer-id="8445396230711"/>
            <path id="Layer_9" dataName="Layer 9" class="cls-1" d="M36,202.56c9.11,2.86,33,6.83,69.09-6.53,45.15-18,38.81-42.74,38.81-42.74l-23.47-66-15.34-69.2L50.62,59.5V92.8L36,104.61v90.55Z" name="Layer %{number}" zoom="1" data-layer-id="2657518330711" style="fill: rgb(255, 255, 255); fill-opacity: 0;">
            </path>
            <path id="Layer_7" dataName="Layer 7" class="cls-2" d="M41.41,105.7v98.38a70.17,70.17,0,0,0,7.6,1.09V100.3Z" name="Layer %{number}" zoom="1" data-layer-id="6639977130711" style="fill: #044d8d;">
            </path>
            <path id="Layer_7" dataName="Layer 7" class="cls-2" d="M87,39.46V201.63c2.52-.62,5.06-1.31,7.6-2.08V34.06Z" name="Layer %{number}" zoom="1" data-layer-id="5402424930711" style="fill: #044d8d;">
            </path>
            <path id="Layer_7" dataName="Layer 7" class="cls-2" d="M56.6,61.05V205.53c1.85,0,3.73,0,5.66-.13l1.94-.11V55.66Z" name="Layer %{number}" zoom="1" data-layer-id="0222431730711" style="fill: #044d8d;">
            </path>
            <path id="Layer_7" dataName="Layer 7" class="cls-2" d="M71.8,50.26V204.53q3.77-.5,7.6-1.23V44.86Z" name="Layer %{number}" zoom="1" data-layer-id="3295112830711" style="fill: #044d8d;">
            </path>
            <path id="Layer_7" dataName="Layer 7" class="cls-3" d="M140.89,178.56A139.82,139.82,0,0,0,165,160.49c0-5.63-.13-48.65-.13-48.65l-26.74-15V35.85l-33-17.73V196A214.13,214.13,0,0,0,140.89,178.56Z" name="Layer %{number}" zoom="1" data-layer-id="7330016130711" style="fill: #084172;">
            </path>
            <path id="Layer_4" dataName="Layer 4" class="cls-4" d="M168.77,90.07l.41-.44-1.59-11S6.58,117.18,15,169c16.16-42.34,117.94-66.1,142.38-71.25Z" name="Layer %{number}" zoom="1" data-layer-id="3402547930711" style="fill: #012442;">
            </path>
            <path id="Layer_4" dataName="Layer 4" class="cls-5" d="M191.52,73c.08-.83-1.53-.76-2.56-.63-6.57,1.32-16.11,3.28-20.64,4.4C128.83,86.48,3,121.41,15,169c13.6-52.78,154.16-79.24,154.16-79.24s5.74-5.17,11.81-9.51c2.25-1.61,6.42-4.18,9.78-6.2A2,2,0,0,0,191.52,73Z" name="Layer %{number}" zoom="1" data-layer-id="4971746830711" style="fill: url(#linear-gradient);">
            </path>
            <path id="Layer_4" dataName="Layer 4" class="cls-4" d="M201.63,114.61a82.35,82.35,0,0,1,20.9-15.52A86.18,86.18,0,0,1,231.58,95c-24.59,1.45-89.07,7.19-145.79,29C14,151.69,3.8,182.49,30.24,188.42c-14.92-9.62,13.11-27.82,41.85-40.09a212.18,212.18,0,0,1,27.34-9.78s29.92-8.25,88.77-15.66Z" name="Layer %{number}" zoom="1" data-layer-id="6004645530711" style="fill: #012442;">
            </path>
            <path id="Layer_4" dataName="Layer 4" class="cls-6" d="M222.53,99.09a87.83,87.83,0,0,1,12.74-5.41l-.09,0s2.74-.89,2.87-1.85c.09-.69-1-.81-2-.78-27.5,2.87-94.71,11.63-150.31,33C14,151.69,3.8,182.49,30.24,188.42,9.94,177,48.07,153.49,76.81,141.22a212.18,212.18,0,0,1,27.34-9.78s33.09-9.68,97.78-17.14A82.63,82.63,0,0,1,222.53,99.09Z" name="Layer %{number}" zoom="1" data-layer-id="8631922930711" style="fill: url(#linear-gradient-2);">
            </path>
            <path id="Layer_4" dataName="Layer 4" class="cls-4" d="M183.61,145.35a70.53,70.53,0,0,1,5.64-13.91c-23,1-67.84,4.94-109.15,19.43-58.74,20.6-67.79,45.3-46.57,50.76-11.81-8.17,11.32-22.21,34.87-31.44A171.91,171.91,0,0,1,90.75,163s26.91-6.81,82.69-11.38Z" name="Layer %{number}" zoom="1" data-layer-id="0434086230711" style="fill: #012442;">
            </path>
            <path id="Layer_4" dataName="Layer 4" class="cls-7" d="M189.61,130.82c1.12-1.82-.53-1.81-.75-1.81-25.7,2.42-70,8.26-108.76,21.86-58.74,20.6-67.79,45.3-46.57,50.76-16.12-9.76,15.31-27.85,38.86-37.08a172.27,172.27,0,0,1,22.36-7.24s29.05-7.87,88.91-12.14A70.58,70.58,0,0,1,189.54,131,.83.83,0,0,1,189.61,130.82Z" name="Layer %{number}" zoom="1" data-layer-id="4294091630711" style="fill: url(#linear-gradient-3);">
            </path>
        </svg>
    </g>
    <g>
        <svg xmlns="http://www.w3.org/2000/svg" viewBoxSize="575" data-root-id="1697882230711" y="445.5134582519531" viewBox="-0.9900000095367432 4.440000057220459 256.48193359375 23.973081588745117" x="158.07555895996094" height="23.973081588745117" width="256.48193359375" fontUrl="http://fonts.gstatic.com/s/roboto/v30/KFOkCnqEu92Fr1Mu52xPKTM1K9nz.ttf" zoom="1" editorType="buyer" data-layer-role="slogan" style="position: absolute; top: 445.513px; width: 256.482px; height: 23.9731px; left: 158.076px;">
            <g data-horizontal-grow="center" zoom="1" root="[object Object]" style="fill: rgb(0, 110, 176); fill-opacity: 1;">
                <path d="M11.94 23.19L11.10 18.55L3.89 18.55L1.46 23.19L-0.99 23.19L8.67 5.42L10.68 5.42L14.20 23.19L11.94 23.19ZM9.28 8.34L4.91 16.63L10.75 16.63L9.28 8.34ZM16.96 16.56L16.96 16.56Q17.20 14.55 18.07 12.93Q18.93 11.30 20.20 10.50Q21.47 9.69 23.00 9.73L23.00 9.73Q25.21 9.78 26.39 11.34L26.39 11.34L27.66 4.44L29.87 4.44L26.62 23.19L24.61 23.19L24.84 21.78Q23.28 23.49 20.98 23.44L20.98 23.44Q19.15 23.39 18.07 22.00Q16.98 20.62 16.89 18.29L16.89 18.29Q16.86 17.57 16.96 16.56ZM19.08 17.83L19.08 17.83Q19.04 19.58 19.70 20.54Q20.36 21.51 21.63 21.53L21.63 21.53Q23.55 21.62 25.04 19.60L25.04 19.60L26.09 13.50Q25.35 11.69 23.43 11.65L23.43 11.65Q22.12 11.61 21.12 12.43Q20.13 13.26 19.61 14.74Q19.09 16.22 19.08 17.83ZM33.25 9.99L34.91 20.10L39.67 9.99L42.00 9.99L35.35 23.19L33.67 23.19L31.08 9.99L33.25 9.99ZM49.13 9.74L49.13 9.74Q50.79 9.77 51.98 10.64Q53.16 11.52 53.73 13.07Q54.30 14.61 54.11 16.44L54.11 16.44L54.09 16.71Q53.86 18.64 52.94 20.20Q52.03 21.75 50.57 22.62Q49.12 23.49 47.39 23.44L47.39 23.44Q45.74 23.41 44.55 22.53Q43.36 21.66 42.81 20.14Q42.26 18.63 42.42 16.81L42.42 16.81Q42.60 14.76 43.53 13.12Q44.46 11.49 45.92 10.59Q47.38 9.69 49.13 9.74ZM44.67 16.54L44.64 16.82Q44.56 17.59 44.64 18.42L44.64 18.42Q44.76 19.86 45.50 20.72Q46.24 21.57 47.47 21.61L47.47 21.61Q48.57 21.64 49.50 21.06Q50.43 20.48 51.06 19.31Q51.70 18.14 51.88 16.71L51.88 16.71Q51.98 15.59 51.92 14.82L51.92 14.82Q51.77 13.34 51.03 12.49Q50.28 11.63 49.05 11.58L49.05 11.58Q47.34 11.55 46.14 12.93Q44.95 14.31 44.67 16.54L44.67 16.54ZM56.40 16.56L56.40 16.56Q56.69 14.40 57.56 12.81Q58.44 11.22 59.69 10.46Q60.94 9.69 62.43 9.73L62.43 9.73Q64.72 9.78 65.89 11.46L65.89 11.46L66.33 9.99L68.36 9.99L66.16 22.91Q65.81 25.44 64.11 26.96Q62.41 28.48 59.92 28.41L59.92 28.41Q58.58 28.38 57.35 27.77Q56.13 27.16 55.42 26.10L55.42 26.10L56.68 24.74Q57.87 26.51 59.84 26.56L59.84 26.56Q61.41 26.61 62.51 25.68Q63.60 24.76 63.95 23.05L63.95 23.05L64.20 21.88Q62.59 23.49 60.42 23.44L60.42 23.44Q59.19 23.40 58.28 22.77Q57.37 22.14 56.87 20.95Q56.37 19.76 56.32 18.30L56.32 18.30Q56.30 17.58 56.40 16.56ZM58.56 17.20L58.53 17.82Q58.50 19.57 59.14 20.53Q59.78 21.48 61.07 21.53L61.07 21.53Q63.05 21.58 64.48 19.59L64.48 19.59L65.52 13.53Q64.78 11.72 62.87 11.65L62.87 11.65Q61.07 11.60 59.92 13.11Q58.76 14.62 58.56 17.20L58.56 17.20ZM79.81 23.19L77.56 23.19Q77.48 22.84 77.48 22.50L77.48 22.50L77.51 21.80Q75.70 23.49 73.66 23.44L73.66 23.44Q71.91 23.41 70.82 22.33Q69.73 21.25 69.82 19.63L69.82 19.63Q69.95 17.53 71.66 16.35Q73.38 15.17 76.17 15.17L76.17 15.17L78.48 15.19L78.63 14.14Q78.75 12.95 78.17 12.26Q77.59 11.57 76.43 11.55L76.43 11.55Q75.29 11.52 74.42 12.10Q73.55 12.68 73.35 13.64L73.35 13.64L71.13 13.65Q71.24 12.49 72.03 11.59Q72.83 10.69 74.07 10.20Q75.32 9.70 76.65 9.73L76.65 9.73Q78.71 9.78 79.86 10.98Q81.01 12.18 80.82 14.17L80.82 14.17L79.75 20.72L79.69 21.66Q79.66 22.33 79.83 22.99L79.83 22.99L79.81 23.19ZM74.10 21.48L74.10 21.48Q75.16 21.51 76.10 20.98Q77.05 20.45 77.73 19.51L77.73 19.51L78.21 16.78L76.54 16.77Q74.45 16.77 73.34 17.43Q72.23 18.09 72.08 19.30L72.08 19.30Q71.97 20.23 72.52 20.84Q73.06 21.46 74.10 21.48ZM83.44 16.56L83.44 16.56Q83.68 14.55 84.55 12.93Q85.41 11.30 86.68 10.50Q87.95 9.69 89.48 9.73L89.48 9.73Q91.69 9.78 92.87 11.34L92.87 11.34L94.14 4.44L96.35 4.44L93.10 23.19L91.09 23.19L91.32 21.78Q89.76 23.49 87.46 23.44L87.46 23.44Q85.63 23.39 84.55 22.00Q83.46 20.62 83.37 18.29L83.37 18.29Q83.34 17.57 83.44 16.56ZM85.56 17.83L85.56 17.83Q85.52 19.58 86.18 20.54Q86.84 21.51 88.11 21.53L88.11 21.53Q90.03 21.62 91.52 19.60L91.52 19.60L92.57 13.50Q91.83 11.69 89.90 11.65L89.90 11.65Q88.60 11.61 87.60 12.43Q86.61 13.26 86.09 14.74Q85.57 16.22 85.56 17.83ZM103.93 9.74L103.93 9.74Q105.59 9.77 106.77 10.64Q107.96 11.52 108.53 13.07Q109.09 14.61 108.91 16.44L108.91 16.44L108.89 16.71Q108.65 18.64 107.74 20.20Q106.82 21.75 105.37 22.62Q103.92 23.49 102.19 23.44L102.19 23.44Q100.54 23.41 99.35 22.53Q98.16 21.66 97.61 20.14Q97.06 18.63 97.22 16.81L97.22 16.81Q97.40 14.76 98.33 13.12Q99.26 11.49 100.71 10.59Q102.17 9.69 103.93 9.74ZM99.46 16.54L99.44 16.82Q99.35 17.59 99.44 18.42L99.44 18.42Q99.56 19.86 100.30 20.72Q101.04 21.57 102.27 21.61L102.27 21.61Q103.37 21.64 104.30 21.06Q105.22 20.48 105.86 19.31Q106.49 18.14 106.68 16.71L106.68 16.71Q106.77 15.59 106.71 14.82L106.71 14.82Q106.57 13.34 105.82 12.49Q105.08 11.63 103.85 11.58L103.85 11.58Q102.14 11.55 100.94 12.93Q99.74 14.31 99.46 16.54L99.46 16.54ZM118.73 19.62L118.73 19.62Q118.91 18.25 117.22 17.69L117.22 17.69L114.93 17.02Q112.02 16.02 112.12 13.70L112.12 13.70Q112.21 11.95 113.71 10.83Q115.22 9.72 117.26 9.74L117.26 9.74Q119.26 9.77 120.51 10.91Q121.77 12.05 121.72 13.88L121.72 13.88L119.52 13.87Q119.54 12.88 118.90 12.26Q118.25 11.63 117.18 11.61L117.18 11.61Q116.03 11.58 115.20 12.17L115.20 12.17Q114.43 12.72 114.31 13.61L114.31 13.61Q114.15 14.76 115.71 15.28L115.71 15.28L116.82 15.59Q119.09 16.17 120.04 17.11Q121.00 18.05 120.92 19.45L120.92 19.45Q120.85 20.68 120.12 21.59Q119.38 22.51 118.16 22.99Q116.94 23.47 115.56 23.44L115.56 23.44Q113.46 23.41 112.10 22.21Q110.73 21.01 110.78 19.12L110.78 19.12L112.99 19.13Q112.99 20.24 113.70 20.91Q114.40 21.58 115.64 21.58L115.64 21.58Q116.85 21.61 117.72 21.08Q118.60 20.54 118.73 19.62ZM140.86 23.19L140.01 18.55L132.81 18.55L130.38 23.19L127.93 23.19L137.59 5.42L139.60 5.42L143.12 23.19L140.86 23.19ZM138.20 8.34L133.83 16.63L139.67 16.63L138.20 8.34ZM153.42 19.62L153.42 19.62Q153.60 18.25 151.92 17.69L151.92 17.69L149.62 17.02Q146.72 16.02 146.81 13.70L146.81 13.70Q146.90 11.95 148.41 10.83Q149.91 9.72 151.95 9.74L151.95 9.74Q153.96 9.77 155.21 10.91Q156.46 12.05 156.41 13.88L156.41 13.88L154.21 13.87Q154.24 12.88 153.59 12.26Q152.94 11.63 151.87 11.61L151.87 11.61Q150.72 11.58 149.89 12.17L149.89 12.17Q149.12 12.72 149.00 13.61L149.00 13.61Q148.84 14.76 150.40 15.28L150.40 15.28L151.51 15.59Q153.78 16.17 154.74 17.11Q155.69 18.05 155.62 19.45L155.62 19.45Q155.54 20.68 154.81 21.59Q154.08 22.51 152.86 22.99Q151.64 23.47 150.26 23.44L150.26 23.44Q148.16 23.41 146.79 22.21Q145.42 21.01 145.47 19.12L145.47 19.12L147.68 19.13Q147.68 20.24 148.39 20.91Q149.10 21.58 150.33 21.58L150.33 21.58Q151.54 21.61 152.42 21.08Q153.30 20.54 153.42 19.62ZM166.04 19.62L166.04 19.62Q166.22 18.25 164.54 17.69L164.54 17.69L162.24 17.02Q159.34 16.02 159.44 13.70L159.44 13.70Q159.52 11.95 161.03 10.83Q162.54 9.72 164.58 9.74L164.58 9.74Q166.58 9.77 167.83 10.91Q169.08 12.05 169.03 13.88L169.03 13.88L166.83 13.87Q166.86 12.88 166.21 12.26Q165.56 11.63 164.49 11.61L164.49 11.61Q163.34 11.58 162.51 12.17L162.51 12.17Q161.74 12.72 161.62 13.61L161.62 13.61Q161.46 14.76 163.02 15.28L163.02 15.28L164.14 15.59Q166.41 16.17 167.36 17.11Q168.31 18.05 168.24 19.45L168.24 19.45Q168.16 20.68 167.43 21.59Q166.70 22.51 165.48 22.99Q164.26 23.47 162.88 23.44L162.88 23.44Q160.78 23.41 159.41 22.21Q158.04 21.01 158.09 19.12L158.09 19.12L160.30 19.13Q160.30 20.24 161.01 20.91Q161.72 21.58 162.95 21.58L162.95 21.58Q164.16 21.61 165.04 21.08Q165.92 20.54 166.04 19.62ZM177.82 9.74L177.82 9.74Q179.48 9.77 180.66 10.64Q181.85 11.52 182.42 13.07Q182.98 14.61 182.80 16.44L182.80 16.44L182.78 16.71Q182.54 18.64 181.63 20.20Q180.71 21.75 179.26 22.62Q177.81 23.49 176.07 23.44L176.07 23.44Q174.43 23.41 173.24 22.53Q172.05 21.66 171.50 20.14Q170.95 18.63 171.11 16.81L171.11 16.81Q171.29 14.76 172.22 13.12Q173.14 11.49 174.60 10.59Q176.06 9.69 177.82 9.74ZM173.35 16.54L173.33 16.82Q173.24 17.59 173.33 18.42L173.33 18.42Q173.45 19.86 174.19 20.72Q174.93 21.57 176.16 21.61L176.16 21.61Q177.26 21.64 178.19 21.06Q179.11 20.48 179.75 19.31Q180.38 18.14 180.57 16.71L180.57 16.71Q180.66 15.59 180.60 14.82L180.60 14.82Q180.46 13.34 179.71 12.49Q178.97 11.63 177.73 11.58L177.73 11.58Q176.03 11.55 174.83 12.93Q173.63 14.31 173.35 16.54L173.35 16.54ZM190.01 21.61L190.01 21.61Q191.20 21.63 192.15 20.92Q193.10 20.20 193.40 19.04L193.40 19.04L195.48 19.03Q195.30 20.28 194.49 21.30Q193.68 22.33 192.44 22.90Q191.21 23.47 189.92 23.44L189.92 23.44Q188.27 23.41 187.13 22.58Q185.99 21.74 185.45 20.25Q184.91 18.75 185.08 16.88L185.08 16.88L185.14 16.27Q185.38 14.37 186.25 12.87Q187.13 11.36 188.55 10.53Q189.97 9.69 191.67 9.74L191.67 9.74Q193.75 9.79 195.00 11.13Q196.24 12.48 196.24 14.54L196.24 14.54L194.18 14.53Q194.15 13.23 193.46 12.43Q192.76 11.63 191.58 11.58L191.58 11.58Q189.86 11.55 188.71 12.87Q187.57 14.18 187.29 16.55L187.29 16.55L187.26 16.87Q187.18 17.65 187.23 18.48L187.23 18.48Q187.32 19.91 188.04 20.74Q188.76 21.57 190.01 21.61ZM201.94 9.99L199.65 23.19L197.45 23.19L199.74 9.99L201.94 9.99ZM201.46 5.16L201.46 5.16Q202.03 5.14 202.40 5.50Q202.77 5.86 202.77 6.45L202.77 6.45Q202.76 7.02 202.40 7.39Q202.04 7.75 201.46 7.78Q200.89 7.80 200.52 7.45Q200.16 7.09 200.17 6.52Q200.18 5.94 200.54 5.57Q200.89 5.19 201.46 5.16ZM213.59 23.19L211.34 23.19Q211.25 22.84 211.25 22.50L211.25 22.50L211.29 21.80Q209.47 23.49 207.43 23.44L207.43 23.44Q205.69 23.41 204.60 22.33Q203.50 21.25 203.60 19.63L203.60 19.63Q203.72 17.53 205.44 16.35Q207.15 15.17 209.95 15.17L209.95 15.17L212.26 15.19L212.40 14.14Q212.52 12.95 211.94 12.26Q211.36 11.57 210.21 11.55L210.21 11.55Q209.07 11.52 208.20 12.10Q207.32 12.68 207.13 13.64L207.13 13.64L204.91 13.65Q205.02 12.49 205.81 11.59Q206.60 10.69 207.85 10.20Q209.09 9.70 210.42 9.73L210.42 9.73Q212.49 9.78 213.64 10.98Q214.78 12.18 214.60 14.17L214.60 14.17L213.53 20.72L213.46 21.66Q213.44 22.33 213.61 22.99L213.61 22.99L213.59 23.19ZM207.87 21.48L207.87 21.48Q208.94 21.51 209.88 20.98Q210.83 20.45 211.51 19.51L211.51 19.51L211.99 16.78L210.31 16.77Q208.23 16.77 207.12 17.43Q206.01 18.09 205.86 19.30L205.86 19.30Q205.75 20.23 206.29 20.84Q206.84 21.46 207.87 21.48ZM217.21 16.56L217.21 16.56Q217.46 14.55 218.32 12.93Q219.19 11.30 220.46 10.50Q221.73 9.69 223.25 9.73L223.25 9.73Q225.46 9.78 226.65 11.34L226.65 11.34L227.92 4.44L230.13 4.44L226.88 23.19L224.87 23.19L225.10 21.78Q223.54 23.49 221.24 23.44L221.24 23.44Q219.41 23.39 218.32 22.00Q217.24 20.62 217.15 18.29L217.15 18.29Q217.11 17.57 217.21 16.56ZM219.34 17.83L219.34 17.83Q219.30 19.58 219.96 20.54Q220.62 21.51 221.89 21.53L221.89 21.53Q223.80 21.62 225.29 19.60L225.29 19.60L226.34 13.50Q225.61 11.69 223.68 11.65L223.68 11.65Q222.38 11.61 221.38 12.43Q220.39 13.26 219.87 14.74Q219.35 16.22 219.34 17.83ZM237.71 9.74L237.71 9.74Q239.37 9.77 240.55 10.64Q241.74 11.52 242.30 13.07Q242.87 14.61 242.69 16.44L242.69 16.44L242.66 16.71Q242.43 18.64 241.52 20.20Q240.60 21.75 239.15 22.62Q237.70 23.49 235.96 23.44L235.96 23.44Q234.31 23.41 233.12 22.53Q231.93 21.66 231.38 20.14Q230.83 18.63 230.99 16.81L230.99 16.81Q231.18 14.76 232.10 13.12Q233.03 11.49 234.49 10.59Q235.95 9.69 237.71 9.74ZM233.24 16.54L233.22 16.82Q233.13 17.59 233.22 18.42L233.22 18.42Q233.34 19.86 234.08 20.72Q234.81 21.57 236.05 21.61L236.05 21.61Q237.15 21.64 238.07 21.06Q239.00 20.48 239.64 19.31Q240.27 18.14 240.45 16.71L240.45 16.71Q240.55 15.59 240.49 14.82L240.49 14.82Q240.34 13.34 239.60 12.49Q238.85 11.63 237.62 11.58L237.62 11.58Q235.91 11.55 234.72 12.93Q233.52 14.31 233.24 16.54L233.24 16.54ZM252.50 19.62L252.50 19.62Q252.69 18.25 251.00 17.69L251.00 17.69L248.71 17.02Q245.80 16.02 245.90 13.70L245.90 13.70Q245.98 11.95 247.49 10.83Q249.00 9.72 251.04 9.74L251.04 9.74Q253.04 9.77 254.29 10.91Q255.54 12.05 255.49 13.88L255.49 13.88L253.30 13.87Q253.32 12.88 252.67 12.26Q252.03 11.63 250.95 11.61L250.95 11.61Q249.80 11.58 248.97 12.17L248.97 12.17Q248.21 12.72 248.08 13.61L248.08 13.61Q247.92 14.76 249.49 15.28L249.49 15.28L250.60 15.59Q252.87 16.17 253.82 17.11Q254.77 18.05 254.70 19.45L254.70 19.45Q254.63 20.68 253.89 21.59Q253.16 22.51 251.94 22.99Q250.72 23.47 249.34 23.44L249.34 23.44Q247.24 23.41 245.87 22.21Q244.51 21.01 244.56 19.12L244.56 19.12L246.77 19.13Q246.77 20.24 247.47 20.91Q248.18 21.58 249.41 21.58L249.41 21.58Q250.62 21.61 251.50 21.08Q252.38 20.54 252.50 19.62Z" transform="translate(0, 0)">
                </path>
            </g>
        </svg>
    </g>
    <g>
        <svg xmlns="http://www.w3.org/2000/svg" viewBoxSize="575" data-root-id="7102703730711" y="383.5134582519531" viewBox="1.9100000858306885 11.020000457763672 372.19000244140625 45.81999969482422" x="100.20884796142579" height="45.81999969482422" width="372.19000244140625" fontUrl="http://fonts.gstatic.com/s/librebaskerville/v14/kmKiZrc3Hgbbcjq75U4uslyuy4kn0qviTjYwI8Gcw6Oi.ttf" zoom="1" editorType="buyer" data-layer-role="brandName" style="position: absolute;top: 383.513px;width: 372.19px;height: 45.82px;left: 100.209px;text-shadow: 2px 2px 2px #00000094;filter: drop-shadow(2px 3px 1px #00000094);">
            <g data-horizontal-grow="center" zoom="1" root="[object Object]" style="fill: #f89c1c;">
                <path d="M24.24 56.26L1.91 56.26L1.91 53.94Q3.89 53.88 5.08 53.59Q6.26 53.30 6.93 52.61Q7.60 51.91 7.83 50.63Q8.06 49.36 8.06 47.33L8.06 47.33L8.06 20.53Q8.06 18.50 7.89 17.26Q7.71 16.01 7.16 15.28Q6.61 14.56 5.66 14.30Q4.70 14.04 3.13 13.92L3.13 13.92L3.13 11.60L21.75 11.60Q30.51 11.60 35.23 14.41Q39.96 17.23 39.96 22.45L39.96 22.45Q39.96 29.35 30.04 32.19L30.04 32.19L30.04 32.42Q33.23 32.42 35.82 33.32Q38.40 34.22 40.19 35.84Q41.99 37.47 42.98 39.67Q43.96 41.88 43.96 44.49L43.96 44.49Q43.96 47.44 42.54 49.65Q41.12 51.85 38.45 53.36L38.45 53.36Q33.29 56.26 24.24 56.26L24.24 56.26ZM24.65 52.72L24.65 52.72Q33.99 52.72 33.99 44.31L33.99 44.31Q33.99 39.15 30.62 36.77L30.62 36.77Q28.88 35.55 26.13 35.03Q23.37 34.51 19.37 34.51L19.37 34.51L16.59 34.51L16.59 46.11Q16.59 49.71 18.44 51.21Q20.30 52.72 24.65 52.72ZM16.59 31.03L20.01 31.03Q22.62 31.03 24.53 30.54Q26.45 30.04 27.78 29.12L27.78 29.12Q30.57 27.20 30.57 23.14L30.57 23.14Q30.57 18.91 28.48 17.02Q26.39 15.14 21.75 15.14L21.75 15.14L17.63 15.14Q16.59 15.14 16.59 16.12L16.59 16.12L16.59 31.03ZM75.75 46.23L74.41 42.75L58 42.75Q55.27 48.89 55.27 51.27L55.27 51.27Q55.27 53.01 56.58 53.48Q57.88 53.94 60.49 53.94L60.49 53.94L60.49 56.26L44.60 56.26L44.60 53.94Q45.99 53.77 47.01 53.48Q48.02 53.19 48.81 52.66Q49.59 52.14 50.17 51.30Q50.75 50.46 51.27 49.24L51.27 49.24L66.53 11.02L70.82 11.02L84.68 44.89Q85.90 47.85 86.74 49.53Q87.58 51.21 88.54 52.11Q89.49 53.01 90.74 53.36Q91.99 53.71 93.96 53.88L93.96 53.88L93.96 56.26L72.04 56.26L72.04 53.88Q74.82 53.77 76.04 53.30Q77.26 52.84 77.26 51.45L77.26 51.45Q77.26 50.63 76.85 49.36Q76.44 48.08 75.75 46.23L75.75 46.23ZM66.24 21.69L59.33 39.27L73.14 39.27L66.47 21.69L66.24 21.69ZM135.20 43.09L134.27 56.26L94.31 56.26L94.31 53.94Q96.22 53.88 97.44 53.59Q98.66 53.30 99.30 52.61Q99.93 51.91 100.17 50.63Q100.40 49.36 100.40 47.33L100.40 47.33L100.40 20.53Q100.40 18.50 100.20 17.26Q99.99 16.01 99.41 15.28Q98.83 14.56 97.76 14.30Q96.69 14.04 94.95 13.92L94.95 13.92L94.95 11.60L114.96 11.60L114.96 13.92Q112.98 13.98 111.80 14.27Q110.61 14.56 109.97 15.31Q109.33 16.07 109.13 17.40Q108.92 18.73 108.92 20.94L108.92 20.94L108.92 45.24Q108.92 47.68 109.42 49.21Q109.91 50.75 111.13 51.59Q112.35 52.43 114.38 52.75Q116.41 53.07 119.42 53.07L119.42 53.07Q122.79 53.07 125.05 52.66Q127.31 52.26 128.85 51.13Q130.38 50.00 131.31 48.08Q132.24 46.17 132.88 43.09L132.88 43.09L135.20 43.09ZM162.28 56.26L138.10 56.26L138.10 53.94Q140.01 53.88 141.20 53.62Q142.39 53.36 143.06 52.64Q143.72 51.91 143.96 50.66Q144.19 49.42 144.19 47.33L144.19 47.33L144.19 20.53Q144.19 18.50 144.01 17.26Q143.84 16.01 143.26 15.28Q142.68 14.56 141.67 14.30Q140.65 14.04 139.03 13.92L139.03 13.92L139.03 11.60L161.07 11.60Q166.63 11.60 171.33 13.34Q176.03 15.08 179.45 18.15Q182.87 21.23 184.79 25.46Q186.70 29.70 186.70 34.68L186.70 34.68Q186.70 39.44 184.90 43.41Q183.11 47.39 179.89 50.23Q176.67 53.07 172.17 54.67Q167.68 56.26 162.28 56.26L162.28 56.26ZM160.95 15.14L153.70 15.14Q152.71 15.14 152.71 16.12L152.71 16.12L152.71 46.11Q152.71 49.47 154.80 51.10Q156.89 52.72 161.24 52.72L161.24 52.72Q168.84 52.72 172.93 48.14Q177.02 43.56 177.02 34.80L177.02 34.80Q177.02 30.16 175.91 26.51Q174.81 22.85 172.72 20.33Q170.64 17.81 167.65 16.47Q164.66 15.14 160.95 15.14L160.95 15.14ZM216.75 11.02L216.75 11.02Q221.97 11.02 226.49 12.82Q231.01 14.62 234.35 17.75Q237.68 20.88 239.60 25.11Q241.51 29.35 241.51 34.28L241.51 34.28Q241.51 38.98 239.57 43.09Q237.63 47.21 234.29 50.26Q230.96 53.30 226.43 55.07Q221.91 56.84 216.75 56.84L216.75 56.84Q211.58 56.84 207.06 55.07Q202.54 53.30 199.17 50.26Q195.81 47.21 193.89 43.09Q191.98 38.98 191.98 34.28L191.98 34.28Q191.98 29.35 193.89 25.11Q195.81 20.88 199.14 17.75Q202.48 14.62 207.00 12.82Q211.53 11.02 216.75 11.02ZM216.75 53.07L216.75 53.07Q220.11 53.07 222.84 51.77Q225.56 50.46 227.48 48.05Q229.39 45.65 230.41 42.20Q231.42 38.74 231.42 34.45L231.42 34.45Q231.42 29.93 230.41 26.30Q229.39 22.68 227.48 20.10Q225.56 17.52 222.84 16.15Q220.11 14.79 216.75 14.79L216.75 14.79Q213.32 14.79 210.63 16.15Q207.93 17.52 206.02 20.10Q204.10 22.68 203.09 26.30Q202.07 29.93 202.07 34.45L202.07 34.45Q202.07 38.74 203.09 42.20Q204.10 45.65 206.02 48.05Q207.93 50.46 210.63 51.77Q213.32 53.07 216.75 53.07ZM266.16 53.94L266.16 56.26L245.46 56.26L245.46 53.94Q247.43 53.88 248.62 53.56Q249.81 53.24 250.44 52.37Q251.08 51.50 251.31 49.91Q251.55 48.31 251.55 45.59L251.55 45.59L251.55 22.27Q251.55 19.84 251.34 18.24Q251.14 16.65 250.56 15.72Q249.98 14.79 248.91 14.41Q247.83 14.04 246.04 13.92L246.04 13.92L246.04 11.60L265.58 11.60L265.58 13.92Q263.78 14.04 262.71 14.41Q261.64 14.79 261.06 15.72Q260.48 16.65 260.28 18.24Q260.07 19.84 260.07 22.27L260.07 22.27L260.07 45.59Q260.07 48.31 260.28 49.91Q260.48 51.50 261.15 52.37Q261.81 53.24 263.00 53.56Q264.19 53.88 266.16 53.94L266.16 53.94ZM314.88 56.84L307.11 56.84L281.42 20.24L281.18 20.24L281.18 45.18Q281.18 48.08 281.39 49.76Q281.59 51.45 282.26 52.37Q282.92 53.30 284.11 53.59Q285.30 53.88 287.22 53.94L287.22 53.94L287.22 56.26L269.99 56.26L269.99 53.94Q272.14 53.88 273.44 53.56Q274.75 53.24 275.47 52.37Q276.20 51.50 276.43 49.91Q276.66 48.31 276.66 45.59L276.66 45.59L276.66 22.27Q276.66 19.84 276.43 18.24Q276.20 16.65 275.56 15.72Q274.92 14.79 273.73 14.41Q272.54 14.04 270.57 13.92L270.57 13.92L270.57 11.60L286.75 11.60L310.13 45.12L310.36 45.12L310.36 22.68Q310.36 19.84 310.15 18.13Q309.95 16.41 309.29 15.49Q308.62 14.56 307.43 14.27Q306.24 13.98 304.33 13.92L304.33 13.92L304.33 11.60L321.55 11.60L321.55 13.92Q319.41 13.98 318.10 14.30Q316.80 14.62 316.07 15.49Q315.35 16.36 315.11 17.98Q314.88 19.60 314.88 22.27L314.88 22.27L314.88 56.84ZM349.33 11.02L349.33 11.02Q354.55 11.02 359.08 12.82Q363.60 14.62 366.94 17.75Q370.27 20.88 372.19 25.11Q374.10 29.35 374.10 34.28L374.10 34.28Q374.10 38.98 372.16 43.09Q370.21 47.21 366.88 50.26Q363.54 53.30 359.02 55.07Q354.50 56.84 349.33 56.84L349.33 56.84Q344.17 56.84 339.65 55.07Q335.12 53.30 331.76 50.26Q328.40 47.21 326.48 43.09Q324.57 38.98 324.57 34.28L324.57 34.28Q324.57 29.35 326.48 25.11Q328.40 20.88 331.73 17.75Q335.07 14.62 339.59 12.82Q344.11 11.02 349.33 11.02ZM349.33 53.07L349.33 53.07Q352.70 53.07 355.42 51.77Q358.15 50.46 360.06 48.05Q361.98 45.65 362.99 42.20Q364.01 38.74 364.01 34.45L364.01 34.45Q364.01 29.93 362.99 26.30Q361.98 22.68 360.06 20.10Q358.15 17.52 355.42 16.15Q352.70 14.79 349.33 14.79L349.33 14.79Q345.91 14.79 343.21 16.15Q340.52 17.52 338.60 20.10Q336.69 22.68 335.67 26.30Q334.66 29.93 334.66 34.45L334.66 34.45Q334.66 38.74 335.67 42.20Q336.69 45.65 338.60 48.05Q340.52 50.46 343.21 51.77Q345.91 53.07 349.33 53.07Z" transform="translate(0, 0)">
                </path>
            </g>
        </svg>
    </g>
</svg>