<svg version="1.2" xmlns="http://www.w3.org/2000/svg" viewBox="0 0 422 391" width="530" height="491">
	<title>logo-svg</title>
	<defs>
		<linearGradient id="g1" x1="74.9" y1="206" x2="333.2" y2="80.9" gradientUnits="userSpaceOnUse">
			<stop offset="0" stop-color="#012442"/>
			<stop offset=".5" stop-color="#277ec8"/>
			<stop offset="1" stop-color="#115894"/>
		</linearGradient>
		<linearGradient id="g2" x1="101.7" y1="256.9" x2="379.2" y2="78.2" gradientUnits="userSpaceOnUse">
			<stop offset="0" stop-color="#012442"/>
			<stop offset=".5" stop-color="#277ec8"/>
			<stop offset="1" stop-color="#115894"/>
		</linearGradient>
		<linearGradient id="g3" x1="111.8" y1="278.8" x2="329" y2="151" gradientUnits="userSpaceOnUse">
			<stop offset="0" stop-color="#012442"/>
			<stop offset=".5" stop-color="#277ec8"/>
			<stop offset="1" stop-color="#115894"/>
		</linearGradient>
	</defs>
	<style>
		.s0 { fill: none } 
		.s1 { fill: #044d8d } 
		.s2 { fill: #084172 } 
		.s3 { fill: #012442 } 
		.s4 { fill: url(#g1) } 
		.s5 { fill: url(#g2) } 
		.s6 { fill: url(#g3) } 
		.s7 { fill: #006eb0 } 
		.s8 { fill: #f89c1c } 
	</style>
	<g id="Layer">
		<g id="Layer">
			<path id="Layer_9" class="s0" d="m110.7 273.7c12.9 4.1 46.7 9.7 97.8-9.2 63.9-25.5 55-60.5 55-60.5l-33.3-93.5-21.7-98-77.1 58.7v47.1l-20.7 16.7v128.2z"/>
			<path id="Layer_7" class="s1" d="m118.3 136.6v139.3q1.4 0.2 2.7 0.5 1.4 0.2 2.7 0.4 1.3 0.2 2.7 0.3 1.3 0.2 2.7 0.3v-148.5z"/>
			<path id="Layer_7" class="s1" d="m182.9 42.8v229.6q5.4-1.3 10.8-2.9v-234.4z"/>
			<path id="Layer_7" class="s1" d="m139.8 73.3v204.6c2.7 0 5.3 0 8.1-0.2l2.7-0.1v-211.9z"/>
			<path id="Layer_7" class="s1" d="m161.4 58.1v218.4q5.3-0.7 10.7-1.7v-224.4z"/>
			<path id="Layer_7" class="s2" d="m259.2 239.7q4.6-2.7 9-5.7 4.5-2.9 8.8-6.1 4.2-3.2 8.3-6.7 4.1-3.4 8-7c0-8-0.1-68.9-0.1-68.9l-37.9-21.3v-86.3l-46.7-25.1v251.8q6.6-2.5 13-5.2 6.5-2.8 12.9-5.9 6.3-3.1 12.5-6.5 6.2-3.4 12.2-7.1z"/>
			<path id="Layer_4" class="s3" d="m298.7 114.4l0.6-0.6-2.3-15.6c0 0-228 54.6-216.1 128 22.9-59.9 167-93.6 201.7-100.9z"/>
			<path id="Layer_4" class="s4" d="m330.9 90.3c0.1-1.2-2.2-1.1-3.6-0.9-9.3 1.8-22.8 4.6-29.3 6.2-55.9 13.8-234.1 63.2-217.1 130.6 19.3-74.7 218.3-112.2 218.3-112.2 0 0 8.2-7.3 16.8-13.5 3.1-2.2 9-5.9 13.8-8.7q0.2-0.2 0.4-0.3 0.1-0.2 0.3-0.4 0.1-0.2 0.2-0.4 0.1-0.2 0.2-0.4z"/>
			<path id="Layer_4" class="s3" d="m345.2 149.2q3.2-3.3 6.7-6.4 3.5-3 7.2-5.8 3.8-2.7 7.7-5.2 3.9-2.5 8-4.6 1.6-0.8 3.1-1.6 1.6-0.7 3.2-1.5 1.6-0.7 3.3-1.4 1.6-0.7 3.2-1.3c-34.8 2.1-126.1 10.2-206.4 41.1-101.7 39.2-116.1 82.8-78.7 91.2-21.1-13.6 18.6-39.4 59.3-56.8q4.7-2 9.5-3.9 4.8-1.9 9.6-3.7 4.8-1.7 9.7-3.3 4.9-1.5 9.9-2.9c3.3-0.9 42.4-11.7 125.7-22.2z"/>
			<path id="Layer_4" class="s5" d="m374.8 127.2q2.2-1.1 4.4-2.2 2.2-1 4.5-2 2.2-0.9 4.5-1.8 2.3-0.9 4.6-1.7h-0.1c0 0 3.9-1.2 4.1-2.6 0.1-0.9-1.4-1.1-2.8-1.1-39 4.1-134.2 16.5-212.9 46.8-101.6 39.1-116 82.7-78.6 91.1-28.7-16.2 25.3-49.5 66-66.8q4.7-2.1 9.5-4 4.7-1.9 9.6-3.6 4.8-1.8 9.7-3.3 4.9-1.6 9.9-3c3.3-0.9 46.8-13.7 138.4-24.3q3.2-3.2 6.7-6.2 3.4-3 7.1-5.7 3.6-2.7 7.5-5.1 3.9-2.4 7.9-4.5z"/>
			<path id="Layer_4" class="s3" d="m319.7 192.7q0.7-2.5 1.6-5.1 0.9-2.5 1.9-4.9 1-2.5 2.1-4.9 1.1-2.4 2.4-4.8c-32.6 1.4-96.1 7-154.6 27.5-83.2 29.2-96 64.2-65.9 71.9-16.7-11.6 16-31.4 49.4-44.5q3.8-1.6 7.7-3 3.9-1.4 7.9-2.6 4-1.3 8-2.5 4-1.1 8-2.1c2.7-0.7 38.1-9.6 117.1-16.1z"/>
			<path id="Layer_4" class="s6" d="m328.2 172.1c1.6-2.5-0.8-2.5-1.1-2.5-36.4 3.4-99.1 11.7-154 30.9-83.2 29.2-96 64.2-65.9 71.9-22.8-13.8 21.7-39.4 55-52.5q3.9-1.5 7.8-3 3.9-1.4 7.9-2.7 3.9-1.2 7.9-2.4 4-1.1 8.1-2.1c2.7-0.7 41.1-11.2 125.9-17.2q0.7-2.7 1.6-5.2 0.9-2.6 2-5.1 1-2.5 2.2-5 1.2-2.4 2.5-4.8 0 0 0-0.1 0 0 0 0 0-0.1 0.1-0.1 0 0 0-0.1z"/>
		</g>
	</g>
	<g id="Layer">
		<g id="Layer">
			<g id="Layer">
				<path id="Layer" fill-rule="evenodd" class="s7" d="m93 371.3l-0.8-4.7h-7.2l-2.5 4.7h-2.4l9.6-17.8h2l3.6 17.8zm-2.7-14.9l-4.4 8.3h5.9zm7.7 8.2q0.2-2 1.1-3.6 0.8-1.6 2.1-2.4 1.3-0.8 2.8-0.8 2.2 0 3.4 1.6l1.3-6.9h2.2l-3.3 18.8h-2l0.2-1.5q-1.5 1.8-3.8 1.7-1.9 0-2.9-1.4-1.1-1.4-1.2-3.7 0-0.8 0.1-1.8zm2.1 1.3q-0.1 1.7 0.6 2.7 0.7 1 1.9 1 1.9 0.1 3.4-1.9l1.1-6.1q-0.8-1.8-2.7-1.9-1.3 0-2.3 0.8-1 0.8-1.5 2.3-0.5 1.5-0.5 3.1zm14.1-7.8l1.7 10.1 4.8-10.1h2.3l-6.7 13.2h-1.6l-2.6-13.2zm15.9-0.3q1.6 0 2.8 0.9 1.2 0.9 1.8 2.4 0.5 1.6 0.3 3.4v0.3q-0.2 1.9-1.1 3.5-0.9 1.5-2.4 2.4-1.5 0.9-3.2 0.8-1.6 0-2.8-0.9-1.2-0.9-1.8-2.4-0.5-1.5-0.4-3.3 0.2-2.1 1.2-3.7 0.9-1.6 2.3-2.5 1.5-0.9 3.3-0.9zm-4.5 6.8v0.3q-0.1 0.8 0 1.6 0.1 1.4 0.8 2.3 0.8 0.8 2 0.9 1.1 0 2-0.6 1-0.6 1.6-1.7 0.6-1.2 0.8-2.6 0.1-1.1 0-1.9-0.1-1.5-0.8-2.3-0.8-0.9-2-1-1.7 0-2.9 1.4-1.2 1.4-1.5 3.6zm11.7 0q0.3-2.1 1.2-3.7 0.9-1.6 2.1-2.4 1.3-0.7 2.8-0.7 2.2 0 3.4 1.7l0.5-1.4h2l-2.2 12.9q-0.4 2.5-2.1 4-1.7 1.5-4.2 1.5-1.3-0.1-2.5-0.7-1.2-0.6-2-1.6l1.3-1.4q1.2 1.8 3.2 1.8 1.5 0.1 2.6-0.9 1.1-0.9 1.5-2.6l0.2-1.2q-1.6 1.7-3.8 1.6-1.2 0-2.1-0.7-0.9-0.6-1.4-1.8-0.5-1.2-0.6-2.6 0-0.8 0.1-1.8zm2.2 0.7v0.6q-0.1 1.7 0.6 2.7 0.6 0.9 1.9 1 2 0 3.4-1.9l1-6.1q-0.7-1.8-2.6-1.9-1.8 0-3 1.5-1.1 1.5-1.3 4.1zm21.2 6h-2.2q-0.1-0.4-0.1-0.7v-0.7q-1.8 1.7-3.8 1.6-1.8 0-2.9-1.1-1-1.1-1-2.7 0.2-2.1 1.9-3.3 1.7-1.2 4.5-1.2l2.3 0.1 0.2-1.1q0.1-1.2-0.5-1.9-0.6-0.7-1.7-0.7-1.2 0-2.1 0.6-0.8 0.5-1 1.5h-2.2q0.1-1.1 0.9-2 0.8-0.9 2-1.4 1.2-0.5 2.6-0.5 2 0 3.2 1.2 1.1 1.2 0.9 3.2l-1 6.6-0.1 0.9q0 0.7 0.2 1.4zm-5.8-1.8q1.1 0.1 2-0.5 1-0.5 1.7-1.4l0.5-2.8h-1.7q-2.1 0-3.2 0.7-1.1 0.7-1.3 1.9-0.1 0.9 0.5 1.5 0.5 0.6 1.5 0.6zm9.4-4.9q0.2-2 1.1-3.6 0.9-1.6 2.1-2.4 1.3-0.8 2.8-0.8 2.2 0 3.4 1.6l1.3-6.9h2.2l-3.3 18.8h-2l0.3-1.5q-1.6 1.8-3.9 1.7-1.8 0-2.9-1.4-1.1-1.4-1.2-3.7 0-0.8 0.1-1.8zm2.1 1.3q0 1.7 0.6 2.7 0.7 1 2 1 1.9 0.1 3.4-1.9l1-6.1q-0.7-1.8-2.7-1.9-1.3 0-2.3 0.8-0.9 0.8-1.5 2.3-0.5 1.5-0.5 3.1zm18.4-8.1q1.6 0 2.8 0.9 1.2 0.9 1.8 2.4 0.5 1.6 0.4 3.4l-0.1 0.3q-0.2 1.9-1.1 3.5-0.9 1.5-2.4 2.4-1.4 0.9-3.2 0.8-1.6 0-2.8-0.9-1.2-0.9-1.7-2.4-0.6-1.5-0.4-3.3 0.1-2.1 1.1-3.7 0.9-1.6 2.4-2.5 1.4-0.9 3.2-0.9zm-4.5 6.8v0.3q-0.1 0.8 0 1.6 0.1 1.4 0.8 2.3 0.8 0.8 2 0.9 1.1 0 2-0.6 1-0.6 1.6-1.7 0.6-1.2 0.8-2.6 0.1-1.1 0.1-1.9-0.2-1.5-0.9-2.3-0.8-0.9-2-1-1.7 0-2.9 1.4-1.2 1.4-1.5 3.6zm19.3 3.1q0.2-1.4-1.5-1.9l-2.3-0.7q-2.9-1-2.8-3.3 0.1-1.8 1.6-2.9 1.5-1.1 3.5-1.1 2 0 3.3 1.2 1.2 1.1 1.2 2.9h-2.2q0-1-0.7-1.6-0.6-0.6-1.7-0.6-1.1-0.1-2 0.5-0.7 0.6-0.8 1.5-0.2 1.1 1.4 1.6l1.1 0.4q2.2 0.5 3.2 1.5 0.9 0.9 0.9 2.3-0.1 1.2-0.8 2.2-0.8 0.9-2 1.4-1.2 0.4-2.6 0.4-2.1 0-3.5-1.2-1.3-1.2-1.3-3.1h2.2q0 1.1 0.7 1.8 0.7 0.6 2 0.6 1.2 0.1 2.1-0.5 0.8-0.5 1-1.4zm22.1 3.6l-0.8-4.7h-7.2l-2.5 4.7h-2.4l9.6-17.8h2l3.6 17.8zm-2.7-14.9l-4.4 8.3h5.9zm15.2 11.3q0.2-1.4-1.5-2l-2.3-0.6q-2.9-1-2.8-3.3 0.1-1.8 1.6-2.9 1.5-1.1 3.5-1.1 2 0 3.3 1.2 1.2 1.1 1.2 2.9h-2.2q0-1-0.6-1.6-0.7-0.6-1.8-0.6-1.1-0.1-1.9 0.5-0.8 0.6-0.9 1.5-0.2 1.1 1.4 1.6l1.1 0.3q2.3 0.6 3.2 1.6 1 0.9 0.9 2.3-0.1 1.2-0.8 2.1-0.7 1-2 1.4-1.2 0.5-2.6 0.5-2.1 0-3.4-1.2-1.4-1.2-1.4-3.1h2.3q0 1.1 0.7 1.8 0.7 0.6 1.9 0.6 1.2 0.1 2.1-0.5 0.9-0.5 1-1.4zm12.6 0q0.2-1.4-1.5-2l-2.3-0.6q-2.9-1-2.8-3.3 0.1-1.8 1.6-2.9 1.5-1.1 3.6-1.1 2 0 3.2 1.2 1.3 1.1 1.2 2.9h-2.2q0-1-0.6-1.6-0.7-0.6-1.7-0.6-1.2-0.1-2 0.5-0.8 0.6-0.9 1.5-0.2 1.1 1.4 1.6l1.1 0.3q2.3 0.6 3.2 1.6 1 0.9 0.9 2.3-0.1 1.2-0.8 2.1-0.7 1-1.9 1.4-1.3 0.5-2.6 0.5-2.1 0-3.5-1.2-1.4-1.2-1.3-3.1h2.2q0 1.1 0.7 1.8 0.7 0.6 1.9 0.6 1.2 0.1 2.1-0.5 0.9-0.5 1-1.4zm11.8-9.9q1.7 0 2.8 0.9 1.2 0.9 1.8 2.4 0.6 1.6 0.4 3.4v0.3q-0.3 1.9-1.2 3.5-0.9 1.5-2.4 2.4-1.4 0.8-3.2 0.8-1.6 0-2.8-0.9-1.2-0.9-1.7-2.4-0.6-1.5-0.4-3.3 0.2-2.1 1.1-3.7 0.9-1.7 2.4-2.6 1.4-0.9 3.2-0.8zm-4.5 6.8v0.3q-0.1 0.7 0 1.6 0.1 1.4 0.9 2.3 0.7 0.8 1.9 0.9 1.1 0 2.1-0.6 0.9-0.6 1.5-1.7 0.7-1.2 0.8-2.6 0.1-1.2 0.1-1.9-0.2-1.5-0.9-2.4-0.8-0.8-2-0.9-1.7 0-2.9 1.4-1.2 1.4-1.5 3.6zm16.7 5.1q1.2 0 2.1-0.7 1-0.7 1.3-1.9h2.1q-0.2 1.2-1 2.3-0.8 1-2.1 1.6-1.2 0.5-2.5 0.5-1.7 0-2.8-0.9-1.1-0.8-1.7-2.3-0.5-1.5-0.3-3.4v-0.6q0.3-1.9 1.1-3.4 0.9-1.5 2.3-2.3 1.4-0.9 3.1-0.8 2.1 0 3.4 1.4 1.2 1.3 1.2 3.4h-2q-0.1-1.3-0.8-2.1-0.7-0.8-1.8-0.9-1.8 0-2.9 1.3-1.2 1.3-1.4 3.7l-0.1 0.3q0 0.8 0 1.6 0.1 1.5 0.8 2.3 0.7 0.8 2 0.9zm11.9-11.7l-2.3 13.2h-2.2l2.3-13.2zm-0.5-4.8q0.6 0 1 0.4 0.3 0.3 0.3 0.9 0 0.6-0.3 0.9-0.4 0.4-1 0.4-0.5 0.1-0.9-0.3-0.4-0.4-0.4-0.9 0.1-0.6 0.4-1 0.4-0.4 0.9-0.4zm12.2 18h-2.3q-0.1-0.3-0.1-0.6l0.1-0.7q-1.9 1.6-3.9 1.6-1.7 0-2.8-1.1-1.1-1.1-1-2.7 0.1-2.1 1.8-3.3 1.7-1.2 4.5-1.2h2.3l0.2-1q0.1-1.2-0.5-1.9-0.6-0.7-1.7-0.7-1.2 0-2 0.6-0.9 0.5-1.1 1.5h-2.2q0.1-1.2 0.9-2.1 0.8-0.9 2-1.3 1.3-0.5 2.6-0.5 2.1 0 3.2 1.2 1.2 1.2 1 3.2l-1.1 6.6-0.1 0.9q0 0.7 0.2 1.3zm-5.7-1.7q1 0.1 2-0.5 0.9-0.5 1.6-1.4l0.5-2.8h-1.7q-2.1 0-3.2 0.7-1.1 0.6-1.2 1.9-0.2 0.9 0.4 1.5 0.5 0.6 1.6 0.6zm9.3-4.9q0.3-2 1.1-3.6 0.9-1.6 2.2-2.4 1.2-0.9 2.7-0.8 2.3 0 3.4 1.6l1.3-6.9h2.2l-3.2 18.7h-2l0.2-1.4q-1.6 1.7-3.9 1.7-1.8-0.1-2.9-1.4-1.1-1.4-1.2-3.8 0-0.7 0.1-1.7zm2.1 1.3q0 1.7 0.7 2.7 0.6 1 1.9 1 1.9 0.1 3.4-1.9l1-6.1q-0.7-1.9-2.6-1.9-1.3 0-2.3 0.8-1 0.8-1.5 2.3-0.6 1.5-0.6 3.1zm18.4-8.1q1.7 0 2.8 0.9 1.2 0.9 1.8 2.4 0.6 1.6 0.4 3.4v0.3q-0.3 1.9-1.2 3.5-0.9 1.5-2.4 2.4-1.4 0.8-3.1 0.8-1.7 0-2.9-0.9-1.2-0.9-1.7-2.4-0.6-1.5-0.4-3.3 0.2-2.1 1.1-3.7 0.9-1.7 2.4-2.6 1.4-0.9 3.2-0.8zm-4.5 6.8v0.3q-0.1 0.7 0 1.6 0.1 1.4 0.9 2.3 0.7 0.8 1.9 0.9 1.1 0 2.1-0.6 0.9-0.6 1.5-1.7 0.7-1.2 0.8-2.6 0.1-1.2 0.1-1.9-0.2-1.5-0.9-2.4-0.8-0.8-2-0.9-1.7 0-2.9 1.4-1.2 1.4-1.5 3.6zm19.3 3.1q0.2-1.4-1.5-2l-2.3-0.6q-2.9-1-2.8-3.3 0.1-1.8 1.6-2.9 1.5-1.1 3.5-1.1 2 0 3.3 1.2 1.2 1.1 1.2 2.9h-2.2q0-1-0.6-1.6-0.7-0.6-1.8-0.6-1.1-0.1-1.9 0.5-0.8 0.6-0.9 1.5-0.2 1.1 1.4 1.6l1.1 0.3q2.3 0.6 3.2 1.6 1 0.9 0.9 2.3-0.1 1.2-0.8 2.1-0.7 1-2 1.4-1.2 0.5-2.6 0.5-2.1 0-3.4-1.2-1.4-1.2-1.3-3.1h2.2q0 1.1 0.7 1.8 0.7 0.6 1.9 0.6 1.2 0.1 2.1-0.5 0.9-0.5 1-1.4z"/>
			</g>
		</g>
	</g>
	<g id="Layer">
		<g id="Layer">
			<g id="Layer">
				<path id="Layer" fill-rule="evenodd" class="s8" d="m44.5 335.8h-22.3v-2.4q2 0 3.2-0.3 1.2-0.3 1.8-1 0.7-0.7 0.9-2 0.3-1.2 0.3-3.3v-26.8q0-2-0.2-3.2-0.2-1.3-0.7-2-0.6-0.7-1.5-1-1-0.3-2.6-0.4v-2.3h18.6q8.8 0 13.5 2.8 4.8 2.8 4.8 8 0 6.9-10 9.8v0.2q3.2 0 5.8 0.9 2.6 0.9 4.4 2.5 1.8 1.7 2.8 3.9 1 2.2 1 4.8 0 2.9-1.5 5.1-1.4 2.2-4.1 3.8-5.1 2.9-14.2 2.9zm0.4-3.6q9.4 0 9.4-8.4 0-5.2-3.4-7.5-1.7-1.3-4.5-1.8-2.7-0.5-6.7-0.5h-2.8v11.6q0 3.6 1.8 5.1 1.9 1.5 6.2 1.5zm-8-21.7h3.4q2.6 0 4.5-0.5 1.9-0.5 3.3-1.4 2.8-1.9 2.8-6 0-4.2-2.1-6.1-2.1-1.9-6.8-1.9h-4.1q-1 0-1 1zm59.1 15.2l-1.3-3.5h-16.4q-2.7 6.2-2.7 8.6 0 1.7 1.3 2.2 1.3 0.4 3.9 0.4v2.3h-15.9v-2.3q1.4-0.1 2.4-0.4 1-0.3 1.8-0.9 0.8-0.5 1.4-1.3 0.5-0.9 1.1-2.1l15.2-38.2h4.3l13.9 33.9q1.2 2.9 2 4.6 0.9 1.7 1.8 2.6 1 0.9 2.2 1.2 1.3 0.4 3.3 0.6v2.3h-22v-2.3q2.8-0.1 4-0.6 1.3-0.5 1.3-1.9 0-0.8-0.5-2.1-0.4-1.2-1.1-3.1zm-9.5-24.5l-6.9 17.6h13.8l-6.6-17.6zm68.9 21.4l-0.9 13.1h-40v-2.3q1.9 0 3.2-0.3 1.2-0.3 1.8-1 0.7-0.7 0.9-2 0.2-1.3 0.2-3.3v-26.8q0-2-0.2-3.3-0.2-1.2-0.8-1.9-0.5-0.8-1.6-1-1.1-0.3-2.8-0.4v-2.3h20v2.3q-2 0.1-3.2 0.4-1.2 0.2-1.8 1-0.6 0.8-0.8 2.1-0.3 1.3-0.3 3.5v24.3q0 2.5 0.5 4 0.5 1.5 1.8 2.4 1.2 0.8 3.2 1.1 2 0.4 5 0.4 3.4 0 5.7-0.5 2.2-0.4 3.8-1.5 1.5-1.1 2.4-3 1-1.9 1.6-5zm27.1 13.1h-24.2v-2.3q1.9 0 3.1-0.3 1.2-0.3 1.9-1 0.6-0.7 0.9-2 0.2-1.2 0.2-3.3v-26.8q0-2-0.2-3.3-0.2-1.2-0.7-1.9-0.6-0.8-1.6-1-1-0.3-2.7-0.4v-2.3h22.1q5.5 0 10.2 1.7 4.7 1.8 8.2 4.8 3.4 3.1 5.3 7.3 1.9 4.3 1.9 9.3 0 4.7-1.8 8.7-1.8 4-5 6.8-3.2 2.9-7.7 4.5-4.5 1.5-9.9 1.5zm-1.3-41.1h-7.3q-1 0-1 1v30q0 3.4 2.1 5 2.1 1.6 6.4 1.6 7.6 0 11.7-4.6 4.1-4.6 4.1-13.3 0-4.7-1.1-8.3-1.1-3.7-3.2-6.2-2.1-2.5-5-3.8-3-1.4-6.7-1.4zm55.8-4.1q5.2 0 9.7 1.8 4.5 1.8 7.9 4.9 3.3 3.2 5.2 7.4 1.9 4.2 1.9 9.2 0 4.7-1.9 8.8-2 4.1-5.3 7.1-3.3 3.1-7.9 4.9-4.5 1.7-9.6 1.7-5.2 0-9.7-1.7-4.6-1.8-7.9-4.9-3.4-3-5.3-7.1-1.9-4.1-1.9-8.8 0-5 1.9-9.2 1.9-4.2 5.2-7.4 3.4-3.1 7.9-4.9 4.5-1.8 9.8-1.8zm0 42.1q3.3 0 6-1.3 2.8-1.4 4.7-3.8 1.9-2.4 2.9-5.8 1-3.5 1-7.8 0-4.5-1-8.1-1-3.6-2.9-6.2-1.9-2.6-4.7-4-2.7-1.3-6-1.3-3.5 0-6.2 1.3-2.7 1.4-4.6 4-1.9 2.6-2.9 6.2-1 3.6-1 8.1 0 4.3 1 7.8 1 3.4 2.9 5.8 1.9 2.4 4.6 3.8 2.7 1.3 6.2 1.3zm49.4 0.8v2.3h-20.7v-2.3q1.9 0 3.1-0.4 1.2-0.3 1.8-1.1 0.7-0.9 0.9-2.5 0.3-1.6 0.3-4.3v-23.3q0-2.5-0.3-4.1-0.2-1.6-0.7-2.5-0.6-0.9-1.7-1.3-1.1-0.4-2.9-0.5v-2.3h19.6v2.3q-1.8 0.1-2.9 0.5-1.1 0.4-1.6 1.3-0.6 0.9-0.8 2.5-0.2 1.6-0.2 4.1v23.3q0 2.7 0.2 4.3 0.2 1.6 0.9 2.5 0.6 0.8 1.8 1.1 1.2 0.4 3.2 0.4zm48.7 2.9h-7.8l-25.7-36.6h-0.2v25q0 2.9 0.2 4.5 0.2 1.7 0.9 2.7 0.6 0.9 1.8 1.2 1.2 0.3 3.1 0.3v2.3h-17.2v-2.3q2.1 0 3.4-0.4 1.4-0.3 2.1-1.1 0.7-0.9 0.9-2.5 0.3-1.6 0.3-4.3v-23.3q0-2.5-0.3-4.1-0.2-1.6-0.8-2.5-0.7-0.9-1.9-1.3-1.2-0.4-3.1-0.5v-2.3h16.2l23.3 33.5h0.3v-22.4q0-2.9-0.2-4.6-0.2-1.7-0.9-2.6-0.7-1-1.9-1.2-1.2-0.3-3.1-0.4v-2.3h17.3v2.3q-2.2 0.1-3.5 0.4-1.3 0.3-2 1.2-0.7 0.8-1 2.5-0.2 1.6-0.2 4.3zm34.4-45.9q5.3 0 9.8 1.8 4.5 1.8 7.8 5 3.4 3.1 5.3 7.3 1.9 4.3 1.9 9.2 0 4.7-1.9 8.8-2 4.1-5.3 7.2-3.4 3-7.9 4.8-4.5 1.8-9.7 1.8-5.1 0-9.6-1.8-4.6-1.8-7.9-4.8-3.4-3.1-5.3-7.2-1.9-4.1-1.9-8.8 0-4.9 1.9-9.2 1.9-4.2 5.2-7.3 3.4-3.2 7.9-5 4.5-1.8 9.7-1.8zm0 42.1q3.4 0 6.1-1.3 2.8-1.3 4.7-3.7 1.9-2.4 2.9-5.9 1-3.4 1-7.7 0-4.6-1-8.2-1-3.6-2.9-6.2-1.9-2.6-4.7-3.9-2.7-1.4-6.1-1.4-3.4 0-6.1 1.4-2.7 1.3-4.6 3.9-1.9 2.6-2.9 6.2-1 3.6-1 8.2 0 4.3 1 7.7 1 3.5 2.9 5.9 1.9 2.4 4.6 3.7 2.7 1.3 6.1 1.3z"/>
			</g>
		</g>
	</g>
</svg>