<svg version="1.2" xmlns="http://www.w3.org/2000/svg" viewBox="0 0 976 329" width="500" height="300">
	<title>logo-svg</title>
	<defs>
		<linearGradient id="g1" x1="42.9" y1="215" x2="301.2" y2="89.9" gradientUnits="userSpaceOnUse">
			<stop offset="0" stop-color="#012442"/>
			<stop offset=".5" stop-color="#277ec8"/>
			<stop offset="1" stop-color="#115894"/>
		</linearGradient>
		<linearGradient id="g2" x1="69.7" y1="265.9" x2="347.2" y2="87.2" gradientUnits="userSpaceOnUse">
			<stop offset="0" stop-color="#012442"/>
			<stop offset=".5" stop-color="#277ec8"/>
			<stop offset="1" stop-color="#115894"/>
		</linearGradient>
		<linearGradient id="g3" x1="79.8" y1="287.8" x2="297" y2="160" gradientUnits="userSpaceOnUse">
			<stop offset="0" stop-color="#012442"/>
			<stop offset=".5" stop-color="#277ec8"/>
			<stop offset="1" stop-color="#115894"/>
		</linearGradient>
	</defs>
	<style>
		.s0 { fill: none } 
		.s1 { fill: #044d8d } 
		.s2 { fill: #084172 } 
		.s3 { fill: #012442 } 
		.s4 { fill: url(#g1) } 
		.s5 { fill: url(#g2) } 
		.s6 { fill: url(#g3) } 
		.s7 { fill: #006eb0 } 
		.s8 { fill: #f89c1c } 
	</style>
	<g id="Layer">
		<g id="Layer">
			<path id="Layer_9" class="s0" d="m78.7 282.7c12.9 4.1 46.7 9.7 97.8-9.2 63.9-25.5 55-60.5 55-60.5l-33.3-93.5-21.7-98-77.1 58.7v47.1l-20.7 16.7v128.2z"/>
			<path id="Layer_7" class="s1" d="m86.3 145.6v139.3q1.4 0.2 2.7 0.5 1.4 0.2 2.7 0.4 1.3 0.2 2.7 0.3 1.3 0.2 2.7 0.3v-148.5z"/>
			<path id="Layer_7" class="s1" d="m150.9 51.8v229.6q5.4-1.3 10.8-2.9v-234.4z"/>
			<path id="Layer_7" class="s1" d="m107.8 82.3v204.6c2.7 0 5.3 0 8.1-0.2l2.7-0.1v-211.9z"/>
			<path id="Layer_7" class="s1" d="m129.4 67.1v218.4q5.3-0.7 10.7-1.7v-224.4z"/>
			<path id="Layer_7" class="s2" d="m227.2 248.7q4.6-2.7 9-5.7 4.5-2.9 8.8-6.1 4.2-3.2 8.3-6.7 4.1-3.4 8-7c0-8-0.1-68.9-0.1-68.9l-37.9-21.3v-86.3l-46.7-25.1v251.8q6.6-2.5 13-5.2 6.5-2.8 12.9-5.9 6.3-3.1 12.5-6.5 6.2-3.4 12.2-7.1z"/>
			<path id="Layer_4" class="s3" d="m266.7 123.4l0.6-0.6-2.3-15.6c0 0-228 54.6-216.1 128 22.9-59.9 167-93.6 201.7-100.9z"/>
			<path id="Layer_4" class="s4" d="m298.9 99.3c0.1-1.2-2.2-1.1-3.6-0.9-9.3 1.8-22.8 4.6-29.3 6.2-55.9 13.8-234.1 63.2-217.1 130.6 19.3-74.7 218.3-112.2 218.3-112.2 0 0 8.2-7.3 16.8-13.5 3.1-2.2 9-5.9 13.8-8.7q0.2-0.2 0.4-0.3 0.1-0.2 0.3-0.4 0.1-0.2 0.2-0.4 0.1-0.2 0.2-0.4z"/>
			<path id="Layer_4" class="s3" d="m313.2 158.2q3.2-3.3 6.7-6.4 3.5-3 7.2-5.8 3.8-2.7 7.7-5.2 3.9-2.5 8-4.6 1.6-0.8 3.1-1.6 1.6-0.7 3.2-1.5 1.6-0.7 3.3-1.4 1.6-0.7 3.2-1.3c-34.8 2.1-126.1 10.2-206.4 41.1-101.7 39.2-116.1 82.8-78.7 91.2-21.1-13.6 18.6-39.4 59.3-56.8q4.7-2 9.5-3.9 4.8-1.9 9.6-3.7 4.8-1.7 9.7-3.3 4.9-1.5 9.9-2.9c3.3-0.9 42.4-11.7 125.7-22.2z"/>
			<path id="Layer_4" class="s5" d="m342.8 136.2q2.2-1.1 4.4-2.2 2.2-1 4.5-2 2.2-0.9 4.5-1.8 2.3-0.9 4.6-1.7h-0.1c0 0 3.9-1.2 4.1-2.6 0.1-0.9-1.4-1.1-2.8-1.1-39 4.1-134.2 16.5-212.9 46.8-101.6 39.1-116 82.7-78.6 91.1-28.7-16.2 25.3-49.5 66-66.8q4.7-2.1 9.5-4 4.7-1.9 9.6-3.6 4.8-1.8 9.7-3.3 4.9-1.6 9.9-3c3.3-0.9 46.8-13.7 138.4-24.3q3.2-3.2 6.7-6.2 3.4-3 7.1-5.7 3.6-2.7 7.5-5.1 3.9-2.4 7.9-4.5z"/>
			<path id="Layer_4" class="s3" d="m287.7 201.7q0.7-2.5 1.6-5.1 0.9-2.5 1.9-4.9 1-2.5 2.1-4.9 1.1-2.4 2.4-4.8c-32.6 1.4-96.1 7-154.6 27.5-83.2 29.2-96 64.2-65.9 71.9-16.7-11.6 16-31.4 49.4-44.5q3.8-1.6 7.7-3 3.9-1.4 7.9-2.6 4-1.3 8-2.5 4-1.1 8-2.1c2.7-0.7 38.1-9.6 117.1-16.1z"/>
			<path id="Layer_4" class="s6" d="m296.2 181.1c1.6-2.5-0.8-2.5-1.1-2.5-36.4 3.4-99.1 11.7-154 30.9-83.2 29.2-96 64.2-65.9 71.9-22.8-13.8 21.7-39.4 55-52.5q3.9-1.5 7.8-3 3.9-1.4 7.9-2.7 3.9-1.2 7.9-2.4 4-1.1 8.1-2.1c2.7-0.7 41.1-11.2 125.9-17.2q0.7-2.7 1.6-5.2 0.9-2.6 2-5.1 1-2.5 2.2-5 1.2-2.4 2.5-4.8 0 0 0-0.1 0 0 0 0 0-0.1 0.1-0.1 0 0 0-0.1z"/>
		</g>
	</g>
	<g id="Layer">
		<g id="Layer">
			<g id="Layer">
				<path id="Layer" fill-rule="evenodd" class="s7" d="m400.3 216.1l-1.7-9.4h-14.7l-4.9 9.4h-5l19.6-36.1h4.1l7.2 36.1zm-5.5-30.2l-8.8 16.9h11.8zm15.6 16.7q0.5-4.1 2.3-7.4 1.7-3.3 4.3-5 2.6-1.6 5.7-1.5 4.5 0.1 6.9 3.3l2.6-14.1h4.5l-6.6 38.1h-4.1l0.4-2.8q-3.1 3.4-7.8 3.3-3.7-0.1-5.9-2.9-2.2-2.8-2.4-7.5-0.1-1.5 0.1-3.5zm4.3 2.5q0 3.6 1.3 5.5 1.3 2 3.9 2 3.9 0.2 6.9-3.9l2.2-12.4q-1.5-3.6-5.4-3.7-2.7-0.1-4.7 1.6-2 1.7-3.1 4.7-1 3-1.1 6.2zm28.8-15.9l3.4 20.5 9.7-20.5h4.7l-13.5 26.8h-3.4l-5.3-26.8zm32.3-0.5q3.3 0.1 5.8 1.8 2.3 1.8 3.5 5 1.2 3.1 0.8 6.8l-0.1 0.6q-0.4 3.9-2.3 7-1.8 3.2-4.8 5-3 1.7-6.5 1.6-3.3 0-5.7-1.8-2.5-1.8-3.6-4.9-1.1-3-0.8-6.7 0.4-4.2 2.3-7.5 1.9-3.3 4.8-5.2 3-1.8 6.6-1.7zm-9.1 13.8l-0.1 0.6q-0.1 1.5 0 3.2 0.3 3 1.8 4.7 1.5 1.7 4 1.8 2.2 0.1 4.1-1.1 1.9-1.2 3.2-3.6 1.3-2.3 1.6-5.2 0.3-2.3 0.1-3.9-0.3-3-1.8-4.7-1.5-1.8-4-1.9-3.5 0-5.9 2.8-2.4 2.8-3 7.3zm23.8 0.1q0.6-4.4 2.4-7.7 1.8-3.2 4.3-4.7 2.6-1.6 5.6-1.5 4.6 0.1 7 3.5l0.9-3h4.1l-4.4 26.3q-0.8 5.1-4.2 8.2-3.5 3.1-8.5 2.9-2.7 0-5.2-1.3-2.5-1.2-4-3.4l2.6-2.7q2.4 3.6 6.4 3.7 3.2 0.1 5.4-1.8 2.3-1.9 3-5.4l0.5-2.3q-3.3 3.2-7.7 3.1-2.5-0.1-4.4-1.3-1.8-1.3-2.8-3.7-1-2.4-1.1-5.4-0.1-1.5 0.1-3.5zm4.4 1.3v1.2q-0.1 3.6 1.2 5.5 1.3 1.9 3.9 2 4 0.1 6.9-3.9l2.2-12.3q-1.6-3.7-5.4-3.8-3.7-0.1-6 2.9-2.4 3.1-2.8 8.4zm43.2 12.1h-4.6q-0.2-0.7-0.2-1.4l0.1-1.4q-3.7 3.4-7.8 3.3-3.6 0-5.8-2.2-2.2-2.2-2-5.5 0.3-4.3 3.7-6.7 3.5-2.4 9.2-2.4l4.7 0.1 0.3-2.2q0.2-2.4-1-3.8-1.1-1.4-3.5-1.4-2.3-0.1-4.1 1.1-1.7 1.2-2.1 3.1h-4.6q0.3-2.3 1.9-4.1 1.6-1.9 4.1-2.9 2.6-1 5.3-0.9 4.1 0.1 6.5 2.5 2.3 2.5 1.9 6.5l-2.1 13.3-0.2 1.9q0 1.4 0.3 2.7zm-11.6-3.5q2.2 0.1 4.1-1 1.9-1.1 3.3-3l1-5.5h-3.4q-4.3 0-6.5 1.3-2.3 1.4-2.6 3.8-0.2 1.9 0.9 3.1 1.1 1.3 3.2 1.3zm19-10q0.5-4 2.2-7.3 1.8-3.3 4.4-5 2.5-1.6 5.7-1.5 4.4 0.1 6.8 3.2l2.6-14h4.5l-6.6 38.1h-4.1l0.5-2.9q-3.2 3.5-7.8 3.4-3.8-0.1-6-2.9-2.2-2.8-2.4-7.5 0-1.5 0.2-3.6zm4.3 2.6q-0.1 3.6 1.3 5.5 1.3 2 3.9 2 3.9 0.2 6.9-3.9l2.1-12.4q-1.5-3.6-5.4-3.7-2.6-0.1-4.7 1.6-2 1.6-3 4.7-1.1 3-1.1 6.2zm37.3-16.4q3.4 0.1 5.8 1.8 2.4 1.8 3.5 5 1.2 3.1 0.8 6.8v0.6q-0.5 3.9-2.4 7-1.8 3.2-4.8 5-2.9 1.7-6.4 1.6-3.4 0-5.8-1.8-2.4-1.8-3.5-4.9-1.1-3-0.8-6.7 0.3-4.2 2.2-7.5 1.9-3.4 4.9-5.2 2.9-1.8 6.5-1.7zm-9.1 13.8v0.6q-0.2 1.5 0 3.2 0.2 2.9 1.7 4.7 1.5 1.7 4 1.8 2.3 0.1 4.2-1.1 1.8-1.2 3.1-3.6 1.3-2.3 1.7-5.2 0.2-2.3 0.1-3.9-0.3-3-1.9-4.7-1.5-1.8-4-1.9-3.4 0-5.9 2.8-2.4 2.8-3 7.3zm39.2 6.3q0.3-2.8-3.1-4l-4.7-1.3q-5.9-2-5.7-6.8 0.2-3.5 3.3-5.8 3-2.2 7.2-2.2 4 0.1 6.6 2.4 2.5 2.3 2.4 6h-4.4q0-2-1.3-3.3-1.3-1.3-3.5-1.3-2.3-0.1-4 1.1-1.6 1.1-1.8 3-0.3 2.3 2.8 3.3l2.3 0.7q4.6 1.2 6.5 3.1 2 1.9 1.8 4.7-0.1 2.5-1.6 4.4-1.5 1.8-4 2.8-2.5 1-5.3 0.9-4.2 0-7-2.5-2.8-2.4-2.7-6.3l4.5 0.1q0 2.2 1.4 3.6 1.5 1.3 4 1.3 2.4 0.1 4.2-1 1.8-1.1 2.1-2.9zm44.9 7.2l-1.7-9.4h-14.6l-5 9.4h-4.9l19.6-36.1h4.1l7.1 36.1zm-5.4-30.1l-8.9 16.8h11.9zm30.9 22.9q0.4-2.8-3-3.9l-4.7-1.4q-5.9-2-5.7-6.7 0.2-3.6 3.2-5.9 3.1-2.2 7.2-2.2 4.1 0.1 6.6 2.4 2.6 2.3 2.5 6h-4.5q0.1-2-1.3-3.2-1.3-1.3-3.5-1.4-2.3 0-4 1.2-1.5 1.1-1.8 2.9-0.3 2.3 2.9 3.4l2.2 0.6q4.6 1.2 6.6 3.1 1.9 1.9 1.8 4.8-0.2 2.5-1.7 4.3-1.5 1.9-3.9 2.8-2.5 1-5.3 1-4.3-0.1-7.1-2.5-2.8-2.5-2.6-6.3h4.4q0 2.3 1.5 3.6 1.4 1.4 3.9 1.4 2.5 0 4.3-1 1.8-1.1 2-3zm25.6 0q0.4-2.8-3-3.9l-4.7-1.4q-5.9-2-5.7-6.7 0.2-3.6 3.3-5.9 3-2.2 7.2-2.2 4 0.1 6.6 2.4 2.5 2.3 2.4 6h-4.5q0.1-2-1.2-3.2-1.3-1.3-3.5-1.4-2.4 0-4 1.2-1.6 1.1-1.8 2.9-0.4 2.3 2.8 3.4l2.3 0.6q4.6 1.2 6.5 3.1 1.9 1.9 1.8 4.8-0.2 2.5-1.6 4.3-1.5 1.9-4 2.8-2.5 1-5.3 1-4.3-0.1-7-2.5-2.8-2.5-2.7-6.3h4.5q0 2.3 1.4 3.6 1.5 1.4 4 1.4 2.4 0 4.2-1 1.8-1.1 2-3zm24-20.1q3.3 0.1 5.7 1.9 2.4 1.7 3.6 4.9 1.1 3.1 0.8 6.8l-0.1 0.6q-0.5 3.9-2.3 7.1-1.9 3.1-4.8 4.9-3 1.8-6.5 1.7-3.3-0.1-5.7-1.9-2.5-1.8-3.6-4.8-1.1-3.1-0.8-6.8 0.4-4.2 2.3-7.5 1.8-3.3 4.8-5.1 3-1.9 6.6-1.8zm-9.1 13.8l-0.1 0.6q-0.1 1.6 0 3.3 0.3 2.9 1.8 4.6 1.5 1.8 4 1.8 2.2 0.1 4.1-1.1 1.9-1.2 3.2-3.5 1.3-2.4 1.6-5.3 0.2-2.3 0.1-3.8-0.3-3.1-1.8-4.8-1.5-1.7-4-1.8-3.5-0.1-5.9 2.7-2.5 2.8-3 7.3zm33.8 10.3q2.4 0.1 4.4-1.4 1.9-1.4 2.5-3.8h4.2q-0.3 2.5-2 4.6-1.6 2.1-4.2 3.3-2.4 1.1-5.1 1.1-3.3-0.1-5.6-1.8-2.4-1.7-3.4-4.7-1.1-3.1-0.8-6.9l0.1-1.2q0.5-3.9 2.3-6.9 1.8-3.1 4.6-4.8 2.9-1.7 6.4-1.6 4.2 0.1 6.7 2.9 2.6 2.7 2.6 6.9h-4.2q-0.1-2.7-1.5-4.3-1.4-1.6-3.8-1.7-3.5-0.1-5.8 2.6-2.3 2.7-2.9 7.5l-0.1 0.6q-0.1 1.6 0 3.3 0.1 2.9 1.6 4.6 1.5 1.7 4 1.7zm24.2-23.6l-4.6 26.9h-4.5l4.7-26.9zm-1-9.8q1.2 0 1.9 0.7 0.8 0.8 0.8 2-0.1 1.1-0.8 1.9-0.7 0.7-1.9 0.8-1.2 0-1.9-0.7-0.7-0.7-0.7-1.9 0-1.2 0.7-1.9 0.7-0.8 1.9-0.9zm24.6 36.7h-4.5q-0.2-0.8-0.2-1.5l0.1-1.4q-3.7 3.5-7.9 3.4-3.5-0.1-5.7-2.3-2.3-2.2-2.1-5.5 0.3-4.2 3.8-6.6 3.5-2.4 9.1-2.4h4.7l0.3-2.1q0.3-2.4-0.9-3.8-1.2-1.5-3.5-1.5-2.3-0.1-4.1 1.1-1.8 1.2-2.2 3.2h-4.5q0.2-2.4 1.8-4.2 1.6-1.8 4.2-2.8 2.5-1 5.2-1 4.2 0.1 6.5 2.6 2.4 2.4 2 6.4l-2.2 13.3-0.1 1.9q-0.1 1.4 0.3 2.7zm-11.6-3.4q2.1 0 4-1 2-1.1 3.4-3l0.9-5.6h-3.4q-4.2 0-6.5 1.3-2.2 1.4-2.5 3.8-0.2 1.9 0.9 3.2 1.1 1.2 3.2 1.3zm18.9-10q0.5-4.1 2.3-7.4 1.8-3.3 4.3-4.9 2.6-1.7 5.7-1.6 4.5 0.1 6.9 3.3l2.6-14h4.5l-6.6 38h-4.1l0.5-2.8q-3.2 3.5-7.9 3.4-3.7-0.1-5.9-3-2.2-2.8-2.4-7.5-0.1-1.5 0.1-3.5zm4.4 2.6q-0.1 3.5 1.2 5.5 1.4 1.9 3.9 2 3.9 0.2 6.9-3.9l2.2-12.4q-1.5-3.7-5.4-3.8-2.7-0.1-4.7 1.6-2 1.7-3.1 4.7-1 3-1 6.3zm37.3-16.5q3.3 0.1 5.7 1.9 2.5 1.7 3.6 4.9 1.1 3.1 0.8 6.8l-0.1 0.6q-0.4 3.9-2.3 7.1-1.9 3.1-4.8 4.9-3 1.8-6.5 1.7-3.3-0.1-5.8-1.9-2.4-1.8-3.5-4.9-1.1-3-0.8-6.7 0.4-4.2 2.3-7.5 1.9-3.3 4.8-5.1 3-1.9 6.6-1.8zm-9.1 13.8l-0.1 0.6q-0.1 1.6 0 3.3 0.3 2.9 1.8 4.6 1.5 1.8 4 1.8 2.2 0.1 4.1-1.1 1.9-1.2 3.2-3.5 1.3-2.4 1.6-5.3 0.2-2.3 0.1-3.9-0.3-3-1.8-4.7-1.5-1.7-4-1.8-3.5-0.1-5.9 2.7-2.4 2.8-3 7.3zm39.1 6.3q0.4-2.8-3-3.9l-4.7-1.4q-5.9-2-5.7-6.7 0.2-3.6 3.2-5.9 3.1-2.2 7.2-2.2 4.1 0.1 6.6 2.4 2.6 2.3 2.5 6h-4.5q0.1-2-1.2-3.3-1.3-1.2-3.5-1.3-2.4 0-4.1 1.2-1.5 1.1-1.8 2.9-0.3 2.3 2.9 3.4l2.2 0.6q4.7 1.2 6.6 3.1 1.9 1.9 1.8 4.7-0.2 2.5-1.7 4.4-1.5 1.9-3.9 2.8-2.5 1-5.3 1-4.3-0.1-7.1-2.5-2.7-2.5-2.6-6.3h4.5q0 2.3 1.4 3.6 1.4 1.4 3.9 1.4 2.5 0 4.3-1 1.8-1.1 2-3z"/>
			</g>
		</g>
	</g>
	<g id="Layer">
		<g id="Layer">
			<g id="Layer">
				<path id="Layer" fill-rule="evenodd" class="s8" d="m407 157.8h-32v-3.3q2.8-0.1 4.5-0.5 1.7-0.5 2.7-1.4 0.9-1 1.3-2.9 0.3-1.8 0.3-4.7v-38.4q0-2.9-0.2-4.7-0.3-1.8-1.1-2.8-0.8-1-2.1-1.4-1.4-0.4-3.7-0.5v-3.4h26.7q12.6 0 19.3 4.1 6.8 4 6.8 11.5 0 9.8-14.2 13.9v0.3q4.6 0 8.3 1.3 3.7 1.3 6.2 3.6 2.6 2.4 4 5.5 1.4 3.2 1.4 6.9 0 4.3-2 7.4-2 3.2-5.9 5.3-7.4 4.2-20.3 4.2zm0.6-5.1q13.3 0 13.3-12 0-7.4-4.8-10.8-2.5-1.8-6.4-2.5-4-0.8-9.7-0.8h-4v16.7q0 5.1 2.7 7.3 2.6 2.1 8.9 2.1zm-11.6-31h4.9q3.8 0 6.5-0.7 2.7-0.8 4.6-2.1 4-2.7 4-8.5 0-6.1-3-8.8-2.9-2.7-9.6-2.7h-5.9q-1.5 0-1.5 1.4zm84.7 21.8l-1.9-5h-23.5q-3.9 8.8-3.9 12.2 0 2.5 1.9 3.2 1.9 0.6 5.6 0.6v3.3h-22.8v-3.3q2-0.2 3.5-0.6 1.4-0.5 2.6-1.2 1.1-0.8 1.9-2 0.8-1.2 1.6-2.9l21.8-54.8h6.2l19.8 48.6q1.8 4.2 3 6.6 1.2 2.4 2.6 3.7 1.3 1.3 3.1 1.8 1.8 0.5 4.6 0.7v3.4h-31.4v-3.4q4-0.1 5.8-0.8 1.7-0.7 1.7-2.7 0-1.1-0.6-2.9-0.6-1.9-1.6-4.5zm-13.6-35.2l-9.9 25.2h19.8l-9.5-25.2zm98.7 30.7l-1.3 18.8h-57.2v-3.3q2.7-0.1 4.4-0.5 1.8-0.4 2.7-1.4 0.9-1 1.2-2.8 0.4-1.8 0.4-4.8v-38.3q0-2.9-0.3-4.7-0.3-1.8-1.1-2.9-0.9-1-2.4-1.4-1.5-0.3-4-0.5v-3.3h28.6v3.3q-2.8 0.1-4.5 0.5-1.7 0.4-2.6 1.5-0.9 1.1-1.2 3-0.3 1.9-0.3 5.1v34.8q0 3.4 0.7 5.6 0.7 2.2 2.4 3.4 1.8 1.2 4.7 1.7 2.9 0.5 7.2 0.5 4.8 0 8.1-0.6 3.2-0.6 5.4-2.2 2.2-1.6 3.5-4.4 1.4-2.7 2.3-7.1zm38.8 18.8h-34.7v-3.3q2.8-0.1 4.5-0.4 1.7-0.4 2.6-1.4 1-1.1 1.3-2.9 0.4-1.8 0.4-4.8v-38.3q0-2.9-0.3-4.7-0.2-1.8-1.1-2.9-0.8-1-2.2-1.4-1.5-0.3-3.8-0.5v-3.3h31.5q8 0 14.7 2.5 6.8 2.5 11.7 6.9 4.9 4.4 7.6 10.4 2.7 6.1 2.7 13.2 0 6.8-2.5 12.5-2.6 5.7-7.2 9.8-4.6 4.1-11.1 6.4-6.4 2.2-14.1 2.2zm-1.9-58.9h-10.4q-1.4 0-1.4 1.5v42.9q0 4.8 3 7.1 2.9 2.4 9.2 2.4 10.9 0 16.7-6.6 5.9-6.6 5.9-19.1 0-6.6-1.6-11.9-1.6-5.2-4.6-8.8-3-3.6-7.2-5.5-4.3-2-9.6-2zm79.9-5.9q7.4 0 13.9 2.6 6.5 2.6 11.3 7.1 4.7 4.5 7.5 10.5 2.7 6.1 2.7 13.2 0 6.7-2.7 12.6-2.8 5.9-7.6 10.2-4.8 4.4-11.3 6.9-6.4 2.6-13.8 2.6-7.4 0-13.9-2.6-6.5-2.5-11.3-6.9-4.8-4.3-7.6-10.2-2.7-5.9-2.7-12.6 0-7.1 2.7-13.2 2.8-6 7.6-10.5 4.7-4.5 11.2-7.1 6.5-2.6 14-2.6zm0 60.3q4.8 0 8.7-1.9 3.9-1.9 6.6-5.3 2.8-3.5 4.2-8.4 1.5-5 1.5-11.1 0-6.5-1.5-11.7-1.4-5.2-4.2-8.8-2.7-3.7-6.6-5.7-3.9-2-8.7-2-4.9 0-8.8 2-3.9 2-6.6 5.7-2.7 3.6-4.2 8.8-1.5 5.2-1.5 11.7 0 6.1 1.5 11.1 1.5 4.9 4.2 8.4 2.7 3.4 6.6 5.3 3.9 1.9 8.8 1.9zm70.7 1.2v3.3h-29.6v-3.3q2.8-0.1 4.5-0.5 1.7-0.5 2.6-1.7 0.9-1.3 1.3-3.6 0.3-2.3 0.3-6.1v-33.4q0-3.5-0.3-5.8-0.3-2.3-1.1-3.6-0.8-1.4-2.4-1.9-1.5-0.5-4.1-0.7v-3.3h28v3.3q-2.6 0.2-4.1 0.7-1.5 0.5-2.4 1.9-0.8 1.3-1.1 3.6-0.3 2.3-0.3 5.8v33.4q0 3.8 0.3 6.1 0.3 2.3 1.3 3.6 0.9 1.2 2.6 1.7 1.7 0.4 4.5 0.5zm69.8 4.2h-11.1l-36.8-52.4h-0.4v35.7q0 4.1 0.3 6.5 0.3 2.4 1.3 3.8 0.9 1.3 2.6 1.7 1.7 0.4 4.5 0.5v3.3h-24.7v-3.3q3.1-0.1 5-0.5 1.8-0.5 2.9-1.7 1-1.3 1.3-3.6 0.4-2.3 0.4-6.1v-33.4q0-3.5-0.4-5.8-0.3-2.3-1.2-3.6-0.9-1.4-2.6-1.9-1.7-0.5-4.6-0.7v-3.3h23.2l33.5 48h0.3v-32.2q0-4-0.3-6.5-0.3-2.4-1.2-3.8-1-1.3-2.7-1.7-1.7-0.4-4.4-0.5v-3.3h24.7v3.3q-3.1 0.1-5 0.5-1.9 0.5-2.9 1.7-1 1.3-1.4 3.6-0.3 2.3-0.3 6.2zm49.3-65.7q7.5 0 14 2.6 6.5 2.6 11.3 7.1 4.7 4.5 7.5 10.5 2.7 6.1 2.7 13.2 0 6.7-2.8 12.6-2.8 5.9-7.5 10.2-4.8 4.4-11.3 6.9-6.5 2.6-13.9 2.6-7.4 0-13.8-2.6-6.5-2.5-11.3-6.9-4.8-4.3-7.6-10.2-2.7-5.9-2.7-12.6 0-7.1 2.7-13.2 2.8-6 7.5-10.5 4.8-4.5 11.3-7.1 6.5-2.6 13.9-2.6zm0 60.3q4.9 0 8.8-1.9 3.9-1.9 6.6-5.3 2.8-3.5 4.2-8.4 1.5-5 1.5-11.1 0-6.5-1.5-11.7-1.4-5.2-4.2-8.9-2.7-3.7-6.6-5.6-3.9-2-8.8-2-4.9 0-8.7 2-3.9 1.9-6.6 5.6-2.8 3.7-4.2 8.9-1.5 5.2-1.5 11.7 0 6.1 1.5 11.1 1.4 4.9 4.2 8.4 2.7 3.4 6.6 5.3 3.8 1.9 8.7 1.9z"/>
			</g>
		</g>
	</g>
</svg>